<svg width="36" height="36" viewBox="0 0 36 36" fill="none" xmlns="http://www.w3.org/2000/svg">
<mask id="mask0_287_2834" style="mask-type:luminance" maskUnits="userSpaceOnUse" x="0" y="0" width="36" height="36">
<path d="M35.5 0.411499H0.5V35.4115H35.5V0.411499Z" fill="white"/>
</mask>
<g mask="url(#mask0_287_2834)">
<path d="M27.8436 20.6823H25.1512C24.8623 20.6823 24.58 20.768 24.3401 20.9287L21.0478 23.1323C20.5228 23.4823 19.9103 23.6427 19.3123 23.6427C18.8019 23.6427 18.2915 23.526 17.8248 23.2635C17.1222 22.8921 16.6061 22.2099 16.3526 21.445C16.1496 20.8323 15.7448 20.2646 15.1615 19.9887C14.4917 19.6721 13.888 19.2537 13.3769 18.7427C12.1228 17.4885 11.4373 15.7239 11.4373 13.7552V8.06767V7.70308C11.4373 6.89768 10.7844 6.24475 9.979 6.24475C6.0415 6.24475 3.4165 8.2135 3.4165 12.8073V20.6823C3.4165 25.276 6.0415 27.2448 9.979 27.2448H15.4478V31.401H11.2915C10.6936 31.401 10.1978 31.8968 10.1978 32.4948C10.1978 33.0927 10.6936 33.5885 11.2915 33.5885H21.7915C22.3894 33.5885 22.8853 33.0927 22.8853 32.4948C22.8853 31.8968 22.3894 31.401 21.7915 31.401H17.6353V27.2448H23.104C26.5973 27.2448 29.0575 25.6951 29.5682 22.1377C29.6825 21.3404 29.0136 20.6823 28.2082 20.6823H27.8436Z" fill="white"/>
<path d="M27.8438 3.32812H18.3646C16.1917 3.32812 14.5583 4.43646 13.9167 6.24479C13.7271 6.79896 13.625 7.41146 13.625 8.06771V13.7552C13.625 15.1698 14.0917 16.3656 14.9229 17.1969C15.7542 18.0281 16.95 18.4948 18.3646 18.4948V20.5219C18.3646 21.2656 19.2104 21.7177 19.8375 21.3094L24.0521 18.4948H27.8438C28.5 18.4948 29.1125 18.3927 29.6667 18.2031C31.475 17.5615 32.5833 15.9281 32.5833 13.7552V8.06771C32.5833 5.22396 30.6875 3.32812 27.8438 3.32812ZM18.9042 12.0781C18.2917 12.0781 17.8104 11.5823 17.8104 10.9844C17.8104 10.3865 18.2917 9.89062 18.9042 9.89062C19.5167 9.89062 19.9979 10.3865 19.9979 10.9844C19.9979 11.5823 19.5167 12.0781 18.9042 12.0781ZM23.0167 12.0781C22.4042 12.0781 21.9229 11.5823 21.9229 10.9844C21.9229 10.3865 22.4187 9.89062 23.0167 9.89062C23.6146 9.89062 24.1104 10.3865 24.1104 10.9844C24.1104 11.5823 23.6146 12.0781 23.0167 12.0781ZM27.1146 12.0781C26.5021 12.0781 26.0208 11.5823 26.0208 10.9844C26.0208 10.3865 26.5167 9.89062 27.1146 9.89062C27.7125 9.89062 28.2083 10.3865 28.2083 10.9844C28.2083 11.5823 27.7125 12.0781 27.1146 12.0781Z" fill="white"/>
<path d="M32.5833 8.06771V13.7552C32.5833 15.9281 31.475 17.5615 29.6667 18.2031C29.1125 18.3927 28.5 18.4948 27.8438 18.4948H24.0521L19.8375 21.3094C19.2104 21.7177 18.3646 21.2656 18.3646 20.5219V18.4948C16.95 18.4948 15.7542 18.0281 14.9229 17.1969C14.0917 16.3656 13.625 15.1698 13.625 13.7552V8.06771C13.625 7.41146 13.7271 6.79896 13.9167 6.24479C14.5583 4.43646 16.1917 3.32812 18.3646 3.32812H27.8438C30.6875 3.32812 32.5833 5.22396 32.5833 8.06771Z" fill="white"/>
</g>
</svg>
