<svg width="53" height="35" viewBox="0 0 53 35" fill="none" xmlns="http://www.w3.org/2000/svg">
<path fill-rule="evenodd" clip-rule="evenodd" d="M5.56055 0.809082C2.9051 0.809082 0.752441 2.96174 0.752441 5.61719V29.5063C0.752441 32.1617 2.90511 34.3144 5.56055 34.3144H47.4397C50.0951 34.3144 52.2478 32.1617 52.2478 29.5063V5.61719C52.2478 2.96175 50.0951 0.809082 47.4397 0.809082H5.56055ZM31.2709 6.05163C30.7978 6.05163 30.4143 6.43517 30.4143 6.90829C30.4143 7.38142 30.7978 7.76496 31.2709 7.76496H46.7862C47.2593 7.76496 47.6429 7.38142 47.6429 6.90829C47.6429 6.43517 47.2593 6.05163 46.7862 6.05163H31.2709ZM5.35741 22.7012C5.35741 22.2281 5.74095 21.8445 6.21407 21.8445H13.4449C13.918 21.8445 14.3016 22.2281 14.3016 22.7012C14.3016 23.1743 13.918 23.5579 13.4449 23.5579H6.21407C5.74095 23.5579 5.35741 23.1743 5.35741 22.7012ZM8.6642 7.76504C7.52615 7.76504 6.60358 8.68761 6.60358 9.82566V14.2608C6.60358 15.3989 7.52615 16.3214 8.6642 16.3214H14.7664C15.9045 16.3214 16.8271 15.3989 16.8271 14.2608V9.82566C16.8271 8.68761 15.9045 7.76504 14.7664 7.76504H8.6642ZM5.35741 28.2154C5.35741 27.7423 5.74095 27.3588 6.21407 27.3588H24.1646C24.6377 27.3588 25.0213 27.7423 25.0213 28.2154C25.0213 28.6885 24.6377 29.0721 24.1646 29.0721H6.21407C5.74095 29.0721 5.35741 28.6885 5.35741 28.2154ZM17.6837 21.8445C17.2106 21.8445 16.8271 22.2281 16.8271 22.7012C16.8271 23.1743 17.2106 23.5579 17.6837 23.5579H24.9145C25.3877 23.5579 25.7712 23.1743 25.7712 22.7012C25.7712 22.2281 25.3877 21.8445 24.9145 21.8445H17.6837ZM26.7527 22.7012C26.7527 22.2281 27.1362 21.8445 27.6093 21.8445H34.8401C35.3133 21.8445 35.6968 22.2281 35.6968 22.7012C35.6968 23.1743 35.3133 23.5579 34.8401 23.5579H27.6093C27.1362 23.5579 26.7527 23.1743 26.7527 22.7012ZM38.4615 21.8445C37.9884 21.8445 37.6049 22.2281 37.6049 22.7012C37.6049 23.1743 37.9884 23.5579 38.4615 23.5579H45.6923C46.1655 23.5579 46.549 23.1743 46.549 22.7012C46.549 22.2281 46.1655 21.8445 45.6923 21.8445H38.4615Z" fill="white" fill-opacity="0.4"/>
</svg>
