<svg width="53" height="55" viewBox="0 0 53 55" fill="none" xmlns="http://www.w3.org/2000/svg">
<path fill-rule="evenodd" clip-rule="evenodd" d="M30.4042 1.285C30.9465 0.777787 31.3591 0.572398 32.1284 0.427208C32.2283 0.408322 32.596 0.412317 32.9456 0.436016C34.003 0.507748 34.3996 0.752635 35.7586 2.17375C36.4068 2.85166 37.6536 4.14174 38.5293 5.04066C39.4051 5.93958 40.5091 7.08366 40.9827 7.58306C41.4564 8.08246 42.559 9.23072 43.433 10.1347C44.3069 11.0388 45.8448 12.6324 46.8506 13.6759C47.8563 14.7196 49.0552 15.9616 49.5148 16.4361C51.2666 18.2443 51.4364 18.4278 51.6315 18.7217C51.8308 19.022 51.943 19.2458 52.1384 19.7318C52.3089 20.1559 52.2625 21.3819 52.0488 22.1012C51.4266 24.1946 50.2469 26.5662 48.724 28.7849C48.3329 29.3545 47.1128 30.7387 46.159 31.6948C44.8696 32.9871 43.8809 33.8119 42.0665 35.1087C39.9522 36.6198 39.4395 36.9468 34.9132 39.6699C29.2244 43.0923 26.2986 45.6066 24.4403 48.67C24.0391 49.3312 23.2754 50.8471 23.2754 50.982C23.2754 51.0188 23.2162 51.1776 23.1439 51.3349C23.0715 51.4923 22.9315 51.8662 22.8326 52.1658C22.4248 53.4019 21.9322 53.9942 20.8692 54.5264C20.5749 54.6737 20.325 54.7082 19.5526 54.7082C18.672 54.7082 18.5631 54.6883 18.1278 54.4469C17.655 54.185 15.7262 52.2824 13.2309 49.6167C12.5165 48.8535 9.05075 45.2505 7.56254 43.724C6.6362 42.7737 5.59427 41.6915 5.24714 41.319C4.90002 40.9465 4.06438 40.0768 3.39019 39.3865C0.0392214 35.955 -0.0135333 35.8756 -0.00590613 34.2782C-0.00263733 33.5943 0.0469396 33.3205 0.298183 32.5984C1.14743 30.1587 2.01675 28.4799 3.51922 26.3787C5.06173 24.2215 7.37395 21.9984 10.1831 19.9718C11.1192 19.2964 11.2392 19.2141 11.8346 18.8393C12.0094 18.7294 12.561 18.3749 13.0604 18.0518C13.7966 17.5753 16.0463 16.1973 17.1842 15.5258C17.3132 15.4497 17.5209 15.3232 17.6458 15.2448L19.0078 14.3887C19.632 13.9964 20.2692 13.5814 20.4237 13.4666C20.5783 13.3519 20.7343 13.2581 20.7703 13.2581C20.8429 13.2581 20.9422 13.1872 22.4911 12.0309C26.0329 9.38653 28.3258 6.43962 29.2721 3.31546C29.5973 2.24175 29.8327 1.81963 30.4042 1.285ZM35.5231 6.98097C34.4438 5.86385 33.4054 4.77625 33.2155 4.56396C32.8681 4.17552 32.6516 4.08163 32.5874 4.29156C32.4652 4.69036 32.0132 5.85341 31.8 6.31686C31.6609 6.61931 31.5029 6.96662 31.4487 7.08866C31.3946 7.21078 31.2394 7.50225 31.1038 7.73633C30.9681 7.97041 30.7644 8.33089 30.651 8.53728C29.8602 9.97646 27.88 12.1705 25.6816 14.0434C24.253 15.2604 21.4347 17.1645 18.4387 18.9366C17.8509 19.2843 17.209 19.6708 17.0122 19.7957C16.8153 19.9205 16.2543 20.2655 15.7653 20.5621C11.069 23.412 7.7584 26.2764 5.89418 29.1027C5.3325 29.9542 4.75219 30.9425 4.75219 31.0475C4.75219 31.088 4.67864 31.2186 4.58884 31.3377C4.41115 31.5732 4.09707 32.3053 3.66396 33.4938L3.38729 34.253L3.71126 34.6116C3.88941 34.8088 4.28839 35.2278 4.59801 35.5428C4.90755 35.8578 5.67772 36.6623 6.30941 37.3307C6.9412 37.9991 7.65625 38.7515 7.89841 39.0028C8.14067 39.2542 9.27857 40.4383 10.4272 41.6342C11.5758 42.8302 13.1119 44.4223 13.8406 45.1724C14.5693 45.9225 15.6317 47.0253 16.2014 47.6231C18.4035 49.9337 19.4095 50.9423 19.4864 50.9167C19.5304 50.902 19.7205 50.4816 19.9089 49.9825C20.5754 48.2158 21.5236 46.5401 22.7937 44.8838C23.6584 43.756 25.7585 41.6849 27.0436 40.6923C28.0333 39.9279 31.3737 37.6491 32.0376 37.2855C32.1874 37.2036 32.739 36.8705 33.2634 36.5454C33.7878 36.2205 34.7275 35.6458 35.3518 35.2684C39.5306 32.7425 41.8928 30.9941 43.9178 28.9282C46.1822 26.6182 47.3373 24.7993 48.5639 21.6117C48.6808 21.3078 48.7562 21.129 48.741 20.9581C48.7167 20.6847 48.4605 20.4319 47.7713 19.7202C47.207 19.1374 45.765 17.6396 44.567 16.3917C43.369 15.1438 42.2253 13.9551 42.0256 13.7501C41.5283 13.2399 38.0821 9.64831 37.7522 9.29637C37.6055 9.13992 36.6025 8.09799 35.5231 6.98097ZM32.8904 9.69725C33.1483 9.31189 33.4297 8.95559 33.5157 8.90547C33.6016 8.85535 33.8283 8.81313 34.0195 8.81158C34.7354 8.80595 35.1515 9.65158 34.7384 10.273C33.9349 11.4816 33.1525 12.5559 32.4982 13.3489C31.2087 14.9116 28.3819 17.5392 27.8453 17.6738C27.5041 17.7595 27.0232 17.4936 26.8456 17.1212C26.6231 16.6544 26.7827 16.2154 27.3369 15.7705C29.5843 13.9661 31.2575 12.1363 32.8904 9.69725ZM20.046 41.6893C20.987 40.5671 23.0727 38.6006 23.9464 38.0119C24.1406 37.8811 24.398 37.774 24.5183 37.774C24.8443 37.774 25.2234 38.0016 25.3461 38.2709C25.6148 38.8608 25.4536 39.1351 24.2404 40.1522C22.8758 41.2961 21.9752 42.2136 20.9764 43.4776C20.5152 44.0611 20.0777 44.6262 20.0041 44.7332L19.4228 45.5794C18.8939 46.3494 18.7155 46.4908 18.2734 46.4908C17.6023 46.4908 17.2156 45.8595 17.4898 45.2117C17.5619 45.0412 17.7875 44.6771 17.9912 44.4024C18.1949 44.1278 18.448 43.7805 18.5538 43.6306C19.0519 42.9249 19.514 42.3238 20.046 41.6893ZM20.4671 29.5634C21.0936 29.1602 21.7719 28.8874 22.5022 28.7451L22.0944 27.3776C21.509 27.4792 20.9352 27.6704 20.3729 27.9512C19.8161 28.2273 19.2948 28.5769 18.809 28.9999C18.3285 29.4183 17.9133 29.8842 17.5633 30.3978C17.2133 30.9114 16.945 31.4535 16.7585 32.0241L18.057 32.616C18.3038 31.9075 18.6699 31.2708 19.1554 30.7056L23.1814 35.329L24.4931 34.1867L20.4671 29.5634ZM27.6331 32.6625C28.0785 32.5309 28.4929 32.2982 28.8761 31.9645C29.5508 31.3769 29.9082 30.7573 29.9481 30.1056C29.9927 29.4593 29.7119 28.788 29.1055 28.0916L25.1993 23.606L21.9039 26.4756L22.8205 27.5282L24.8043 25.8008L27.8573 29.3067C28.4025 29.9329 28.4053 30.481 27.8655 30.9511C27.4768 31.2895 26.9477 31.3849 26.2781 31.2372L26.327 32.7321C26.7625 32.818 27.1978 32.7948 27.6331 32.6625ZM31.9189 27.5779C32.4434 27.33 32.9296 27.011 33.3776 26.6208C33.8958 26.1696 34.2676 25.7082 34.493 25.2367C34.7183 24.7653 34.8049 24.3197 34.7527 23.9001C34.7012 23.4704 34.5344 23.0936 34.2524 22.7697C33.9233 22.3919 33.5626 22.1792 33.1702 22.1318C32.7831 22.0797 32.4073 22.1223 32.0427 22.2595C31.6781 22.3966 31.2352 22.6019 30.714 22.8754C30.2185 23.1456 29.8282 23.3241 29.5432 23.411C29.2588 23.4877 29.0321 23.429 28.8628 23.2346C28.6936 23.0403 28.6437 22.8086 28.713 22.5394C28.7877 22.2655 29.0086 21.9688 29.3757 21.6491C29.8993 21.1932 30.5521 20.8857 31.3343 20.7266L30.8718 19.3781C30.4717 19.4418 30.0613 19.5809 29.6407 19.7954C29.22 20.0098 28.8288 20.2745 28.4672 20.5895C27.949 21.0407 27.5772 21.5021 27.3518 21.9736C27.1319 22.4403 27.0504 22.8862 27.1073 23.3113C27.1595 23.7309 27.3289 24.1053 27.6157 24.4346C27.9447 24.8124 28.3051 25.0301 28.6968 25.0876C29.094 25.1404 29.4749 25.0982 29.8395 24.961C30.2041 24.8239 30.6469 24.6186 31.1681 24.3451C31.5052 24.1654 31.7782 24.0321 31.9872 23.945C32.2015 23.8533 32.3999 23.8087 32.5824 23.8111C32.7655 23.8035 32.9159 23.8671 33.0334 24.0021C33.1932 24.1856 33.2334 24.4116 33.154 24.6801C33.0699 24.9431 32.8416 25.2369 32.4691 25.5612C32.1344 25.8526 31.7528 26.0901 31.3241 26.2736C30.8954 26.457 30.4821 26.5655 30.084 26.5989L30.4989 27.9745C30.9218 27.9479 31.3952 27.8157 31.9189 27.5779Z" fill="white" fill-opacity="0.4"/>
</svg>
