<svg width="48" height="57" viewBox="0 0 48 57" fill="none" xmlns="http://www.w3.org/2000/svg">
<path fill-rule="evenodd" clip-rule="evenodd" d="M12.043 0.279859C11.4773 0.417876 10.9244 0.874271 10.6749 1.40921L10.5529 1.67083L10.5383 9.49235L10.5237 17.3139L11.0004 17.3526C11.4037 17.3853 12.0646 17.528 12.5622 17.6897L12.6869 17.7302V13.1509V8.57164H24.8811H37.0753V15.091V21.6104L37.4544 21.2222C37.8663 20.8004 38.5577 20.2652 38.975 20.0453L39.2379 19.9067L39.2236 10.7888L39.2093 1.67083L39.0551 1.35688C38.8499 0.939067 38.512 0.610211 38.073 0.401247L37.7127 0.229697L25.0196 0.220219C15.0373 0.212736 12.266 0.225484 12.043 0.279859ZM12.6869 4.38681V6.40994H24.8811H37.0753V4.38681V2.36368H24.8811H12.6869V4.38681ZM21.2228 4.38681V5.46766H24.8811H28.5393V4.38681V3.30596H24.8811H21.2228V4.38681ZM3.84609 6.32131C3.04665 6.47551 2.38866 6.83945 1.83033 7.4363C0.870371 8.4625 0.585691 9.90868 1.0831 11.2322C1.37321 12.0041 1.48629 12.125 4.7744 15.1786L7.86441 18.0482L8.05852 17.9556L8.25263 17.8631L8.24791 16.64L8.24326 15.417L5.81351 13.1722C4.47714 11.9375 3.32091 10.8311 3.24408 10.7135C3.04521 10.4089 2.96905 10.0056 3.04315 9.64872C3.24741 8.66481 4.32321 8.14384 5.20701 8.60085C5.33683 8.66803 7.08991 10.2523 8.01706 11.1405L8.25263 11.3661L8.24936 9.87187L8.24609 8.37764L7.55578 7.74553C6.74836 7.00612 6.55414 6.85713 6.1121 6.6378C5.44563 6.30712 4.5605 6.18351 3.84609 6.32131ZM16.2897 17.7727V20.655H19.172H22.0542V17.7727V14.8904H19.172H16.2897V17.7727ZM22.6639 15.5002V16.1099H23.7725H24.8811V15.5002V14.8904H23.7725H22.6639V15.5002ZM25.7125 17.7173V20.5441H26.3222H26.9319V17.7173V14.8904H26.3222H25.7125V17.7173ZM27.7079 17.7727V20.655H30.5902H33.4724V17.7727V14.8904H30.5902H27.7079V17.7727ZM17.5091 17.7727V19.4356H19.172H20.8348V17.7727V16.1099H19.172H17.5091V17.7727ZM28.9273 17.7727V19.4356H30.5902H32.253V17.7727V16.1099H30.5902H28.9273V17.7727ZM18.1743 17.745V18.715H19.1443H20.1143V17.745V16.775H19.1443H18.1743V17.745ZM29.6479 17.745V18.715H30.6179H31.5879V17.745V16.775H30.6179H29.6479V17.745ZM22.8302 19.9621V22.7612H24.8811H26.9319V22.1515V21.5418H25.4908H24.0497V19.3524V17.163H23.4399H22.8302V19.9621ZM9.66604 18.751C8.83706 18.8838 8.11866 19.2404 7.56426 19.7944C7.11918 20.2391 6.8698 20.63 6.65574 21.2184C6.52172 21.5869 6.50791 21.6977 6.50858 22.401C6.50919 23.0672 6.52726 23.2279 6.63645 23.5372C6.90888 24.3094 7.21678 24.7123 8.27469 25.6808L8.82337 26.1831L8.41326 26.3957C7.85931 26.6829 7.18818 27.3517 6.90434 27.8994C6.33864 28.9909 6.33803 30.2708 6.90262 31.3692C7.07317 31.701 7.25115 31.9089 7.95808 32.6017L8.8084 33.4351L8.51669 33.5786C7.79884 33.9319 7.20332 34.5298 6.84187 35.2603C6.37661 36.2006 6.35255 37.3945 6.7794 38.3597C7.04584 38.9621 7.34798 39.2975 8.99065 40.8139C10.7379 42.4269 10.9908 42.6322 11.5303 42.8759C12.3573 43.2494 13.2405 43.2979 14.1226 43.0181C15.6521 42.5329 16.6811 41.114 16.6768 39.496C16.6753 38.9694 16.5419 38.4231 16.2853 37.8931C16.0764 37.4615 15.985 37.3511 15.195 36.5759C14.7208 36.1106 14.3428 35.724 14.3551 35.7168C14.3674 35.7096 14.5515 35.6164 14.7642 35.5097C15.2604 35.2608 15.9202 34.6211 16.1934 34.124C16.6387 33.3139 16.7831 32.3861 16.5953 31.5417C16.3907 30.622 16.0704 30.1278 15.0901 29.2189C14.6981 28.8555 14.3704 28.5422 14.3618 28.5227C14.3532 28.5033 14.5028 28.41 14.6944 28.3155C15.8657 27.7375 16.6758 26.4071 16.6758 25.0615C16.6758 24.2669 16.3879 23.4285 15.9028 22.8101C15.6324 22.4654 12.5908 19.6393 12.2001 19.3698C11.8987 19.1619 11.428 18.946 11.0607 18.8471C10.7518 18.764 9.93587 18.7077 9.66604 18.751ZM9.74581 20.9497C9.29484 21.0761 8.89493 21.4462 8.72299 21.8964C8.58686 22.2529 8.63242 22.7815 8.82803 23.1153C9.03001 23.46 12.0444 26.239 12.3962 26.4049C12.7628 26.5778 13.2809 26.5753 13.66 26.3988C14.2115 26.142 14.5678 25.5069 14.4968 24.9073C14.4318 24.3582 14.3301 24.2364 12.623 22.6608C11.7416 21.8473 10.9126 21.1269 10.7808 21.0599C10.4726 20.9032 10.066 20.8599 9.74581 20.9497ZM41.7312 21.3014C40.0927 21.5151 38.7969 22.5611 38.2806 24.0867L38.1007 24.6181L38.073 29.931L38.0453 35.2438L37.5309 35.3739C36.8668 35.5417 36.164 35.854 35.5454 36.256C34.9563 36.6388 34.0405 37.5368 33.692 38.0733L33.4489 38.4474H26.0273H18.6057L18.6436 38.5985C18.76 39.0621 18.8027 39.4269 18.8059 39.9855L18.8096 40.6091H25.7114L32.6133 40.6091L32.598 43.4221C32.5895 44.9692 32.5716 46.2663 32.5582 46.3044C32.5386 46.3595 30.4989 46.3736 22.6102 46.3736H12.6869V45.9097V45.4457L12.4043 45.4081C12.0249 45.3578 11.2906 45.1223 10.9009 44.926C10.7265 44.8381 10.5706 44.7662 10.5545 44.7662C10.5384 44.7662 10.5252 45.2362 10.5252 45.8106C10.5252 46.5487 10.5481 46.9309 10.6032 47.1142C10.7902 47.7356 11.2893 48.2353 11.9184 48.4311C12.2416 48.5317 12.6469 48.5353 23.5003 48.5353H34.7473L34.7477 44.8632C34.7481 41.4281 34.7549 41.1625 34.8549 40.7477C35.1761 39.4148 36.0482 38.3491 37.3019 37.7578C37.8298 37.5089 38.2424 37.4044 38.9378 37.3437C39.52 37.2928 39.7376 37.2175 39.9368 36.9977C40.2196 36.6856 40.2051 36.9902 40.2347 30.7429L40.2624 24.8952L40.4185 24.5772C40.6094 24.1884 40.9702 23.8177 41.3261 23.6447C41.6906 23.4675 42.4066 23.4291 42.7749 23.5671C43.3705 23.7902 43.7949 24.2529 43.9731 24.8732C44.0532 25.1521 44.0607 25.8445 44.0459 31.6908L44.0296 38.198L43.9024 38.6137C43.7376 39.1523 43.4561 39.7337 43.1901 40.0848C43.0737 40.2385 42.3548 41.1188 41.5927 42.0411C40.8305 42.9634 40.164 43.8104 40.1114 43.9234C39.9896 44.1853 39.9896 44.5157 40.1114 44.7777C40.1992 44.9664 45.9837 51.6948 46.0582 51.6948C46.1341 51.6948 47.6338 50.348 47.6281 50.2849C47.6247 50.2469 46.4814 48.9009 45.0876 47.2938C43.5555 45.5271 42.5649 44.3415 42.5826 44.2953C42.5987 44.2534 43.087 43.644 43.6677 42.9414C44.987 41.3449 45.1749 41.0896 45.4865 40.4705C45.7809 39.8856 45.9522 39.4044 46.0921 38.7687C46.1869 38.3373 46.1932 37.8855 46.1932 31.4635V24.6181L46.0411 24.1747C45.4543 22.4643 44.0908 21.4053 42.341 21.3009C42.1123 21.2873 41.8379 21.2875 41.7312 21.3014ZM17.4461 21.7381C17.6005 21.907 17.8088 22.1807 17.909 22.3463L18.0911 22.6472L19.463 22.6488L20.8348 22.6504V22.983V23.3155H21.4445H22.0542V22.3733V21.431H19.6099H17.1654L17.4461 21.7381ZM27.7079 23.5095V25.5881H28.3176H28.9273V24.1192V22.6504H31.1999H33.4724V22.0407V21.431H30.5902H27.7079V23.5095ZM30.0913 24.5349V25.5881H31.7819H33.4724V24.9796V24.371L32.4055 24.356L31.3385 24.341L31.3223 23.9114L31.3061 23.4818H30.6987H30.0913V24.5349ZM18.7493 24.5419C18.7684 24.6372 18.784 24.9115 18.784 25.1516V25.5881H19.2551H19.7263V24.9784V24.3687H19.2205H18.7147L18.7493 24.5419ZM20.8348 24.9784V25.5881H21.888H22.9411V24.9784V24.3687H21.888H20.8348V24.9784ZM23.8953 24.9645L23.9111 25.5604L24.8118 25.5756L25.7125 25.5909V26.5595V27.5281H26.3222H26.9319V25.9484V24.3687H25.4058H23.8796L23.8953 24.9645ZM18.7101 26.3456C18.6898 26.3659 18.6726 26.4345 18.672 26.498C18.6713 26.5616 18.6011 26.8193 18.516 27.0708L18.3613 27.5281H19.5981H20.8348V29.1909V30.8538H19.7313H18.6277L18.7046 31.1448C18.7468 31.3048 18.7977 31.5791 18.8176 31.7545L18.8537 32.0732H20.454H22.0542V29.1909V26.3087H20.4007C19.4911 26.3087 18.7304 26.3253 18.7101 26.3456ZM27.7079 29.1909V32.0732H30.5902H33.4724V29.1909V26.3087H30.5902H27.7079V29.1909ZM22.8302 29.4126V32.1286H23.8834H24.9365V31.5189V30.9092H24.4931H24.0497V28.8029V26.6966H23.4399H22.8302V29.4126ZM28.9273 29.1909V30.8538H30.5902H32.253V29.1909V27.5281H30.5902H28.9273V29.1909ZM9.5859 28.2302C9.25044 28.3532 8.84903 28.7653 8.73302 29.1057C8.53609 29.6838 8.65792 30.2434 9.07501 30.6763C9.67098 31.2949 12.0515 33.4434 12.3003 33.5873C13.63 34.3564 15.1213 32.7468 14.2529 31.4797C14.0402 31.1694 11.0662 28.4387 10.7839 28.2945C10.4781 28.1384 9.91813 28.1083 9.5859 28.2302ZM18.1743 29.0227C18.1743 29.6342 18.1939 29.838 18.2677 29.9927L18.3611 30.1886H19.2377H20.1143V29.2186V28.2486H19.1443H18.1743V29.0227ZM29.6479 29.2186V30.1886H30.6179H31.5879V29.2186V28.2486H30.6179H29.6479V29.2186ZM25.7125 30.3549V32.1286H26.3222H26.9319V30.3549V28.5812H26.3222H25.7125V30.3549ZM9.52747 35.5141C8.99808 35.7534 8.69589 36.195 8.65304 36.7921C8.61058 37.3838 8.74594 37.611 9.64282 38.4526C11.3676 40.0714 12.1751 40.7854 12.4092 40.8991C12.5893 40.9865 12.758 41.0193 13.0189 41.0178C14.1267 41.0115 14.8346 39.8648 14.3494 38.8626C14.1996 38.553 11.2281 35.7844 10.7954 35.5513C10.4342 35.3567 9.90965 35.3413 9.52747 35.5141ZM24.3448 41.7387C23.5726 41.9912 23.0836 42.6708 23.0836 43.4914C23.0836 43.8235 23.1129 43.9705 23.2294 44.2223C23.7022 45.2444 24.9885 45.6023 25.9155 44.9695C26.4408 44.611 26.7547 43.9337 26.6889 43.3012C26.6224 42.6625 26.1956 42.0736 25.6114 41.8146C25.2878 41.6711 24.6655 41.6339 24.3448 41.7387ZM14.5517 50.7663C14.6709 50.9618 16.8718 53.4172 17.1023 53.6119C17.7812 54.1853 18.714 54.7145 19.5216 54.9845C20.3481 55.2608 20.7869 55.3254 21.8325 55.3244C22.7305 55.3235 22.8971 55.3062 24.0774 55.0906C27.0046 54.5558 28.2269 54.3535 28.2575 54.3985C28.3599 54.5492 30.4429 56.905 30.4739 56.905C30.5164 56.905 32.0514 55.5808 32.0733 55.5252C32.1002 55.457 29.284 52.2768 29.1382 52.2109C28.8012 52.0584 28.617 52.0794 25.6016 52.6138C22.2365 53.21 21.7336 53.2634 20.918 53.1101C19.6463 52.8711 18.7138 52.2857 17.7031 51.092L17.3706 50.6992L15.94 50.6981C14.8098 50.6973 14.5183 50.7116 14.5517 50.7663Z" fill="white" fill-opacity="0.4"/>
</svg>
